P2
# Created by IrfanView
5 7
255
100	114	111	100	112
90	110	112	110	111
90	110	124	110	119
80	110	110	110	118
90	110	100	110	109
111	110	163	110	120
100	98	111	145	112